# xmcd
#
# Track frame offsets:
#	150
#	14895
#	27695
#	44610
#	59003
#	77868
#	92714
#	107129
#	122717
#	134479
#
# Disc length: 2019 seconds
#
# Revision: 2
# Processed by: cddbd v1.5PL3 Copyright (c) Steve Scherf et al.
# Submitted via: audiograbber 1.83.01
#
DISCID=9807e10a
DTITLE=Shenandoa - Under the Kudzu
DYEAR=1993
DGENRE=Country
TTITLE0=Janie Baker's Love Slave
TTITLE1=If Bubba Can Dance
TTITLE2=I Want To Be Loved Like That
TTITLE3=One Kind Of Woman I Like
TTITLE4=Under The Kudzu
TTITLE5=Nickel In The Well
TTITLE6=If It Takes Every Rib I've Got
TTITLE7=I'll Go Down Loving You
TTITLE8=The Bules Are Comin' Over To Your House
TTITLE9=Just Say The Word
EXTD=
EXTT0=
EXTT1=(I CAN TOO)
EXTT2=
EXTT3=
EXTT4=
EXTT5=
EXTT6=
EXTT7=
EXTT8=
EXTT9=
PLAYORDER=
